# This file uses centimeters as units for non-parametric coordinates.

mtllib rock1.mtl
g default
v -2.633925 0.000000 1.487045
v -2.138022 0.019077 1.762647
v -2.500246 0.575987 1.434742
v -1.936922 0.557951 1.813347
v -2.359964 0.575987 0.764495
v -1.740237 0.575987 0.677439
v -2.583534 0.000000 0.574101
v -1.868688 0.000000 0.487045
v -1.856815 0.575987 1.437645
v -2.349954 0.000000 2.316008
v -1.342745 0.000000 2.448482
v -1.999414 0.657945 2.186484
v -1.359313 0.461331 2.140235
v -1.857339 0.741767 1.451589
v -1.223945 0.604466 1.862324
v -1.883103 0.702166 1.837327
v -1.144166 0.000000 2.039260
v -2.101961 0.527873 2.262693
v -1.356038 0.370129 2.201174
v -1.198021 0.435022 1.910905
v 0.512440 -0.006275 1.549681
v -1.834749 0.834224 1.437233
v 0.212620 0.584796 1.514933
v -1.616257 0.702452 0.278913
v -0.244721 0.446932 0.301337
v -1.739733 0.000000 -0.367610
v 0.118297 0.000000 -0.196616
v -0.784932 0.708334 2.076407
v -0.788113 0.035708 2.325444
v -1.700478 0.753246 0.725405
v -0.786622 0.574570 2.126576
v 0.280994 0.423946 1.532429
v -0.164254 0.347865 0.190961
v -1.643627 0.546746 0.135604
v -0.679079 0.040262 2.257440
v -0.468376 0.576738 1.932175
v -0.446322 0.666400 1.885820
v 0.453013 -0.003028 1.584641
v 0.065271 0.388461 1.676700
v -0.355017 0.000000 2.720299
v 0.436047 0.000000 2.081663
v -0.278643 0.411980 2.367327
v 0.235901 0.298993 1.972826
v -1.204859 0.758690 1.820738
v -0.830030 0.636983 1.227579
vt 0.196307 0.686998
vt 0.116615 0.604249
vt 0.167600 0.507094
vt 0.226354 0.594065
vt 0.237371 0.495777
vt 0.381583 0.505880
vt 0.327781 0.596052
vt 0.452473 0.594665
vt 0.372700 0.692233
vt 0.089870 0.491680
vt 0.083993 0.368909
vt 0.104332 0.371680
vt 0.112878 0.476857
vt 0.168737 0.473811
vt 0.161167 0.346055
vt 0.234414 0.469899
vt 0.129450 0.330433
vt 0.019337 0.561040
vt 0.001981 0.365903
vt 0.052669 0.295631
vt 0.180996 0.260910
vt 0.160403 0.252358
vt 0.204490 0.201829
vt 0.221300 0.209405
vt 0.243291 0.458685
vt 0.192214 0.341610
vt 0.314170 0.306310
vt 0.369150 0.471586
vt 0.442468 0.466860
vt 0.500931 0.242935
vt 0.528259 0.230462
vt 0.475222 0.480660
vt 0.324244 0.103067
vt 0.318134 0.130635
vt 0.087325 0.192677
vt 0.072613 0.211094
vt 0.343554 0.021897
vt 0.622743 0.185845
vt 0.597900 0.524068
vt 0.278692 0.113515
vt 0.330541 0.025891
vt 0.068274 0.093812
vt 0.235176 0.001992
vt 0.244152 0.068288
vt 0.156188 0.128536
vn -0.902594 0.287527 0.320393
vn -0.840490 0.308826 0.445201
vn -0.857311 0.469490 0.211179
vn -0.700291 0.663746 0.262744
vn -0.700291 0.663746 0.262744
vn -0.201654 0.979251 -0.020071
vn -0.565184 0.681379 -0.465069
vn -0.491786 0.749669 -0.442881
vn -0.491786 0.749669 -0.442881
vn -0.565184 0.681379 -0.465069
vn -0.658863 0.381898 -0.648116
vn -0.699281 0.397024 -0.594455
vn -0.699281 0.397024 -0.594455
vn -0.902594 0.287527 0.320393
vn -0.700291 0.663746 0.262744
vn -0.491786 0.749669 -0.442881
vn -0.700291 0.663746 0.262744
vn -0.857311 0.469490 0.211179
vn -0.201654 0.979251 -0.020071
vn -0.542644 0.539344 0.643929
vn 0.307616 0.361849 0.880022
vn 0.311711 0.770870 0.555514
vn -0.064437 0.868689 0.491149
vn -0.088663 0.974819 0.204615
vn -0.085323 0.731452 0.676534
vn -0.837610 0.511101 0.192835
vn -0.201654 0.979251 -0.020071
vn -0.857311 0.469490 0.211179
vn -0.088663 0.974819 0.204615
vn -0.837610 0.511101 0.192835
vn -0.088663 0.974819 0.204615
vn -0.857311 0.469490 0.211179
vn -0.542644 0.539344 0.643929
vn -0.064437 0.868689 0.491149
vn -0.064437 0.868689 0.491149
vn 0.311711 0.770870 0.555514
vn -0.085323 0.731452 0.676534
vn -0.088663 0.974819 0.204615
vn 0.307616 0.361849 0.880022
vn -0.064414 0.343603 0.936903
vn -0.085323 0.731452 0.676534
vn 0.311711 0.770870 0.555514
vn -0.542644 0.539344 0.643929
vn -0.857311 0.469490 0.211179
vn -0.840490 0.308826 0.445201
vn -0.612822 0.525633 0.590050
vn -0.612822 0.525633 0.590050
vn 0.188799 0.340934 0.920934
vn 0.307616 0.361849 0.880022
vn -0.542644 0.539344 0.643929
vn 0.188799 0.340934 0.920934
vn -0.004132 0.361308 0.932437
vn -0.064414 0.343603 0.936903
vn 0.307616 0.361849 0.880022
vn 0.078265 0.984976 0.153936
vn -0.151069 0.311362 0.938207
vn 0.150223 0.813346 0.562051
vn 0.131859 0.989925 -0.051596
vn -0.024120 0.999700 -0.004366
vn 0.069163 0.995570 0.063689
vn 0.137756 0.985300 -0.101027
vn 0.061355 0.992474 -0.105976
vn 0.077158 0.969681 -0.231873
vn 0.258247 0.924327 -0.280942
vn 0.414025 0.728370 -0.545950
vn -0.297406 0.706933 -0.641712
vn 0.791293 0.605604 -0.084264
vn 0.414025 0.728370 -0.545950
vn 0.258247 0.924327 -0.280942
vn 0.278779 0.957821 -0.069727
vn -0.297406 0.706933 -0.641712
vn -0.565184 0.681379 -0.465069
vn 0.061355 0.992474 -0.105976
vn 0.077158 0.969681 -0.231873
vn -0.837610 0.511101 0.192835
vn -0.085323 0.731452 0.676534
vn 0.069163 0.995570 0.063689
vn -0.024120 0.999700 -0.004366
vn -0.837610 0.511101 0.192835
vn -0.565184 0.681379 -0.465069
vn -0.201654 0.979251 -0.020071
vn -0.276209 0.572932 0.771659
vn 0.150223 0.813346 0.562051
vn -0.151069 0.311362 0.938207
vn -0.220691 0.299556 0.928203
vn 0.775564 0.612204 -0.153967
vn 0.388313 0.734390 -0.556673
vn 0.414025 0.728370 -0.545950
vn 0.791293 0.605604 -0.084264
vn -0.297406 0.706933 -0.641712
vn 0.414025 0.728370 -0.545950
vn 0.388313 0.734390 -0.556673
vn -0.129941 0.722486 -0.679065
vn -0.129941 0.722486 -0.679065
vn -0.658863 0.381898 -0.648116
vn -0.565184 0.681379 -0.465069
vn -0.297406 0.706933 -0.641712
vn 0.131859 0.989925 -0.051596
vn 0.150223 0.813346 0.562051
vn 0.554852 0.742962 0.374362
vn 0.791293 0.605604 -0.084264
vn 0.554852 0.742962 0.374362
vn 0.744752 0.573832 0.340679
vn 0.775564 0.612204 -0.153967
vn 0.131859 0.989925 -0.051596
vn 0.554852 0.742962 0.374362
vn 0.791293 0.605604 -0.084264
vn 0.278779 0.957821 -0.069727
vn 0.031911 0.675354 0.736803
vn 0.669672 0.600484 0.436988
vn 0.601583 0.725539 0.334202
vn 0.063502 0.789228 0.610809
vn 0.063502 0.789228 0.610809
vn 0.601583 0.725539 0.334202
vn 0.554852 0.742962 0.374362
vn 0.150223 0.813346 0.562051
vn 0.669672 0.600484 0.436988
vn 0.744752 0.573832 0.340679
vn 0.554852 0.742962 0.374362
vn 0.601583 0.725539 0.334202
vn -0.276209 0.572932 0.771659
vn 0.031911 0.675354 0.736803
vn 0.063502 0.789228 0.610809
vn 0.150223 0.813346 0.562051
vn 0.061355 0.992474 -0.105976
vn -0.565184 0.681379 -0.465069
vn -0.837610 0.511101 0.192835
vn -0.024120 0.999700 -0.004366
vn -0.064414 0.343603 0.936903
vn -0.004132 0.361308 0.932437
vn -0.220691 0.299556 0.928203
vn -0.151069 0.311362 0.938207
vn 0.069163 0.995570 0.063689
vn -0.085323 0.731452 0.676534
vn -0.151069 0.311362 0.938207
vn 0.078265 0.984976 0.153936
vn 0.131859 0.989925 -0.051596
vn 0.137756 0.985300 -0.101027
vn 0.069163 0.995570 0.063689
vn 0.078265 0.984976 0.153936
vn 0.258247 0.924327 -0.280942
vn 0.137756 0.985300 -0.101027
vn 0.131859 0.989925 -0.051596
vn 0.278779 0.957821 -0.069727
vn 0.061355 0.992474 -0.105976
vn 0.137756 0.985300 -0.101027
vn 0.258247 0.924327 -0.280942
vn 0.077158 0.969681 -0.231873
vn -0.064414 0.343603 0.936903
vn -0.151069 0.311362 0.938207
vn -0.085323 0.731452 0.676534
s off
g polySurface14 rockssoft_pCylinder2
usemtl rockssoft_initialShadingGroup
f 1/1/1 2/2/2 4/3/3 3/4/4
f 3/4/5 9/5/6 6/6/7 5/7/8
f 5/7/9 6/6/10 8/8/11 7/9/12
f 7/9/13 1/1/14 3/4/15 5/7/16
f 3/4/17 4/3/18 9/5/19
f 18/10/20 19/11/21 13/12/22 12/13/23
f 16/14/24 15/15/25 14/16/26
f 9/5/27 4/3/28 16/14/29 14/16/30
f 16/14/31 4/3/32 18/10/33 12/13/34
f 12/13/35 13/12/36 15/15/37 16/14/38
f 19/11/39 20/17/40 15/15/41 13/12/42
f 18/10/43 4/3/44 2/2/45 10/18/46
f 10/18/47 11/19/48 19/11/49 18/10/50
f 11/19/51 17/20/52 20/17/53 19/11/54
f 28/21/55 31/22/56 36/23/57 37/24/58
f 22/25/59 44/26/60 45/27/61 30/28/62
f 24/29/63 25/30/64 33/31/65 34/32/66
f 32/33/67 33/31/68 25/30/69 23/34/70
f 34/32/71 6/6/72 30/28/73 24/29/74
f 14/16/75 15/15/76 44/26/77 22/25/78
f 14/16/79 6/6/80 9/5/81
f 35/35/82 36/23/83 31/22/84 29/36/85
f 21/37/86 27/38/87 33/31/88 32/33/89
f 34/32/90 33/31/91 27/38/92 26/39/93
f 26/39/94 8/8/95 6/6/96 34/32/97
f 37/24/98 36/23/99 39/40/100
f 32/33/101 39/40/102 38/41/103 21/37/104
f 37/24/105 39/40/106 32/33/107 23/34/108
f 40/42/109 41/43/110 43/44/111 42/45/112
f 42/45/113 43/44/114 39/40/115 36/23/116
f 41/43/117 38/41/118 39/40/119 43/44/120
f 35/35/121 40/42/122 42/45/123 36/23/124
f 30/28/125 6/6/126 14/16/127 22/25/128
f 20/17/129 17/20/130 29/36/131 31/22/132
f 44/26/133 15/15/134 31/22/135 28/21/136
f 37/24/137 45/27/138 44/26/139 28/21/140
f 25/30/141 45/27/142 37/24/143 23/34/144
f 30/28/145 45/27/146 25/30/147 24/29/148
f 20/17/149 31/22/150 15/15/151
