# This file uses centimeters as units for non-parametric coordinates.

mtllib rock2.mtl
g default
v -2.261029 0.000000 -0.382641
v -1.723159 0.000000 -0.514315
v -2.261029 0.420567 -0.595563
v -1.854400 0.500000 -0.727237
v -2.625210 0.420567 -1.420282
v -1.870573 0.590328 -1.360365
v -2.723159 0.000000 -1.514315
v -1.723159 0.000000 -1.514315
v -1.723159 0.296745 -1.514315
v -2.324148 0.250458 -1.514315
v -2.323158 0.000000 -1.514315
v -2.324148 0.269039 -1.383073
v -1.854400 0.144352 -0.514315
v -1.788779 0.330534 -1.448694
v -2.822067 0.000000 -0.859485
v -2.774239 0.320802 -0.924197
vt 0.240965 0.866424
vt 0.185274 0.901418
vt 0.107243 0.847927
vt 0.147953 0.735313
vt 0.098796 0.768540
vt 0.061395 0.861186
vt 0.210976 0.960802
vt 0.133800 0.667671
vt 0.292756 0.728303
vt 0.236486 0.762558
vt 0.194585 0.998008
vt 0.001981 0.882009
vt 0.046121 0.865839
vt 0.080347 0.754612
vt 0.046601 0.733538
vt 0.305456 0.921522
vn -0.277651 0.806609 0.521815
vn 0.350729 0.890862 0.288711
vn 0.300168 0.937855 -0.174145
vn -0.537430 0.790440 -0.293893
vn -0.005105 0.338887 -0.940813
vn -0.537430 0.790440 -0.293893
vn 0.300168 0.937855 -0.174145
vn 0.763427 0.596908 -0.246739
vn 0.587593 0.519914 0.620020
vn 0.763427 0.596908 -0.246739
vn 0.300168 0.937855 -0.174145
vn 0.350729 0.890862 0.288711
vn -0.795628 0.218504 -0.565006
vn -0.858516 0.307939 0.410030
vn -0.796325 0.523719 0.302630
vn -0.537430 0.790440 -0.293893
vn 0.761520 0.576362 0.296471
vn 0.670201 0.000000 -0.742180
vn 0.714079 0.364835 -0.597483
vn -0.537430 0.790440 -0.293893
vn -0.037164 0.260444 -0.964773
vn -0.040927 0.065202 -0.997032
vn -0.795628 0.218504 -0.565006
vn -0.040927 0.065202 -0.997032
vn -0.037164 0.260444 -0.964773
vn 0.714079 0.364835 -0.597483
vn 0.670201 0.000000 -0.742180
vn -0.037164 0.260444 -0.964773
vn -0.537430 0.790440 -0.293893
vn -0.005105 0.338887 -0.940813
vn 0.761520 0.576362 0.296471
vn 0.714079 0.364835 -0.597483
vn 0.763427 0.596908 -0.246739
vn 0.587593 0.519914 0.620020
vn 0.714079 0.364835 -0.597483
vn -0.037164 0.260444 -0.964773
vn -0.005105 0.338887 -0.940813
vn 0.763427 0.596908 -0.246739
vn -0.277651 0.806609 0.521815
vn -0.317720 0.402850 0.858351
vn 0.587593 0.519914 0.620020
vn 0.350729 0.890862 0.288711
vn 0.761520 0.576362 0.296471
vn 0.587593 0.519914 0.620020
vn -0.317720 0.402850 0.858351
vn -0.796325 0.523719 0.302630
vn -0.858516 0.307939 0.410030
vn -0.317720 0.402850 0.858351
vn -0.277651 0.806609 0.521815
vn -0.277651 0.806609 0.521815
vn -0.537430 0.790440 -0.293893
vn -0.796325 0.523719 0.302630
s off
g polySurface12 rockssoft_pCylinder2
usemtl rockssoft_initialShadingGroup
f 3/1/1 4/2/2 6/3/3 5/4/4
f 12/5/5 5/4/6 6/3/7 14/6/8
f 13/7/9 14/6/10 6/3/11 4/2/12
f 7/8/13 15/9/14 16/10/15 5/4/16
f 2/11/17 8/12/18 9/13/19
f 5/4/20 10/14/21 11/15/22 7/8/23
f 11/15/24 10/14/25 9/13/26 8/12/27
f 10/14/28 5/4/29 12/5/30
f 2/11/31 9/13/32 14/6/33 13/7/34
f 9/13/35 10/14/36 12/5/37 14/6/38
f 3/1/39 1/16/40 13/7/41 4/2/42
f 2/11/43 13/7/44 1/16/45
f 16/10/46 15/9/47 1/16/48 3/1/49
f 3/1/50 5/4/51 16/10/52
