# This file uses centimeters as units for non-parametric coordinates.

mtllib rock4.mtl
g default
v 0.826899 0.000000 -0.522503
v 1.797024 0.000000 -0.522990
v 0.932497 0.250236 -0.564948
v 1.670009 0.250236 -0.565318
v 0.871024 0.257588 -0.921114
v 1.507993 0.254394 -1.016440
v 0.768661 0.000000 -0.801218
v 1.665072 0.000000 -0.970033
v 1.204898 0.000000 -0.084503
v 1.219861 0.250236 -0.231970
v 0.491600 0.000000 -1.426646
v 1.528829 0.475504 -1.889139
v 0.674147 0.475504 -1.374557
v 1.677013 0.475504 -1.114317
v 0.819685 0.475504 -1.007343
v 1.861971 0.000000 -1.007113
v 0.731293 0.000000 -0.794181
v 1.052376 0.475504 -2.077956
v 1.858109 0.000000 -2.319652
v 0.537720 0.000000 -2.150190
v 1.712481 0.385106 -2.198990
v 0.775642 0.385106 -2.190380
v 1.949069 0.385106 -1.708371
v 2.144957 0.000000 -1.568060
v 1.027105 0.000000 -2.720299
v 1.052911 0.385106 -2.398145
v 1.555258 0.389986 -1.901129
v 1.028557 0.387608 -2.140450
v 1.637293 0.396422 -1.460882
v 0.915523 0.384444 -1.898435
v 0.679303 0.000000 -1.856622
v 1.805014 0.000000 -1.297330
vt 0.663255 0.108202
vt 0.731017 0.011851
vt 0.746900 0.062856
vt 0.707039 0.124311
vt 0.831424 0.093355
vt 0.834515 0.170561
vt 0.706433 0.188227
vt 0.865696 0.060035
vt 0.887133 0.144755
vt 0.655336 0.163333
vt 0.869483 0.348683
vt 0.783415 0.406620
vt 0.787026 0.386779
vt 0.857283 0.341575
vt 0.702944 0.285388
vt 0.718901 0.221671
vt 0.858766 0.211652
vt 0.623825 0.310646
vt 0.649187 0.168473
vt 0.874737 0.267800
vt 0.752621 0.371707
vt 0.964134 0.436597
vt 0.813083 0.536717
vt 0.801327 0.446572
vt 0.902104 0.395309
vt 0.996855 0.280839
vt 0.927319 0.313352
vt 0.684750 0.459278
vt 0.750448 0.426727
vt 0.920557 0.163565
vt 0.671939 0.391820
vt 0.942742 0.218293
vn -0.795880 0.416541 0.439396
vn 0.002869 0.507580 0.861600
vn -0.000875 0.734100 0.679041
vn -0.358470 0.909512 0.210444
vn -0.358470 0.909512 0.210444
vn 0.495421 0.839533 0.223031
vn 0.238808 0.813818 0.529784
vn -0.065580 0.852492 0.518611
vn 0.797325 0.487749 0.355490
vn 0.784670 0.512624 0.348584
vn 0.238808 0.813818 0.529784
vn 0.495421 0.839533 0.223031
vn -0.757179 0.490782 0.431061
vn -0.795880 0.416541 0.439396
vn -0.358470 0.909512 0.210444
vn -0.065580 0.852492 0.518611
vn -0.000875 0.734100 0.679041
vn 0.002869 0.507580 0.861600
vn 0.797325 0.487749 0.355490
vn 0.495421 0.839533 0.223031
vn -0.358470 0.909512 0.210444
vn -0.000875 0.734100 0.679041
vn 0.495421 0.839533 0.223031
vn 0.143488 0.983441 -0.110704
vn -0.049454 0.989765 -0.133865
vn -0.107503 0.949735 -0.294017
vn 0.125790 0.986717 -0.102795
vn 0.125790 0.986717 -0.102795
vn -0.482787 0.875713 0.006660
vn -0.306631 0.901808 0.304500
vn 0.272171 0.944767 0.182587
vn 0.272171 0.944767 0.182587
vn -0.306631 0.901808 0.304500
vn -0.065580 0.852492 0.518611
vn 0.238808 0.813818 0.529784
vn -0.920830 0.387264 -0.045805
vn -0.836557 0.340352 0.429341
vn -0.306631 0.901808 0.304500
vn -0.482787 0.875713 0.006660
vn 0.272171 0.944767 0.182587
vn 0.747662 0.639610 0.178609
vn 0.143488 0.983441 -0.110704
vn 0.125790 0.986717 -0.102795
vn -0.107503 0.949735 -0.294017
vn -0.049454 0.989765 -0.133865
vn -0.826870 0.529914 -0.188354
vn -0.482787 0.875713 0.006660
vn 0.125790 0.986717 -0.102795
vn -0.107503 0.949735 -0.294017
vn -0.482787 0.875713 0.006660
vn 0.596972 0.477623 -0.644594
vn -0.034808 0.551288 -0.833589
vn -0.067544 0.720884 -0.689757
vn 0.474372 0.697470 -0.537128
vn 0.843811 0.518281 0.139166
vn 0.596972 0.477623 -0.644594
vn 0.474372 0.697470 -0.537128
vn 0.717708 0.696276 0.009741
vn -0.067544 0.720884 -0.689757
vn -0.034808 0.551288 -0.833589
vn -0.803672 0.551299 -0.224011
vn -0.702495 0.647551 -0.295260
vn 0.272171 0.944767 0.182587
vn 0.238808 0.813818 0.529784
vn 0.784670 0.512624 0.348584
vn 0.865673 0.402899 0.297125
vn -0.757179 0.490782 0.431061
vn -0.065580 0.852492 0.518611
vn -0.306631 0.901808 0.304500
vn -0.836557 0.340352 0.429341
vn -0.482787 0.875713 0.006660
vn -0.826870 0.529914 -0.188354
vn -0.866275 0.477699 -0.146191
vn -0.920830 0.387264 -0.045805
vn 0.865673 0.402899 0.297125
vn 0.836947 0.472567 0.276045
vn 0.747662 0.639610 0.178609
vn 0.272171 0.944767 0.182587
vn 0.717708 0.696276 0.009741
vn 0.747662 0.639610 0.178609
vn 0.836947 0.472567 0.276045
vn 0.843811 0.518281 0.139166
vn 0.474372 0.697470 -0.537128
vn 0.143488 0.983441 -0.110704
vn 0.747662 0.639610 0.178609
vn 0.717708 0.696276 0.009741
vn -0.803672 0.551299 -0.224011
vn -0.866275 0.477699 -0.146191
vn -0.826870 0.529914 -0.188354
vn -0.702495 0.647551 -0.295260
vn -0.702495 0.647551 -0.295260
vn -0.826870 0.529914 -0.188354
vn -0.049454 0.989765 -0.133865
vn -0.067544 0.720884 -0.689757
vn -0.067544 0.720884 -0.689757
vn -0.049454 0.989765 -0.133865
vn 0.143488 0.983441 -0.110704
vn 0.474372 0.697470 -0.537128
s off
g polySurface13 rockssoft_pCylinder2
usemtl rockssoft_initialShadingGroup
f 1/1/1 9/2/2 10/3/3 3/4/4
f 3/4/5 4/5/6 6/6/7 5/7/8
f 2/8/9 8/9/10 6/6/11 4/5/12
f 7/10/13 1/1/14 3/4/15 5/7/16
f 10/3/17 9/2/18 2/8/19 4/5/20
f 3/4/21 10/3/22 4/5/23
f 27/11/24 28/12/25 18/13/26 12/14/27
f 12/14/28 13/15/29 15/16/30 14/17/31
f 14/17/32 15/16/33 5/7/34 6/6/35
f 11/18/36 17/19/37 15/16/38 13/15/39
f 14/17/40 29/20/41 27/11/42 12/14/43
f 18/13/44 28/12/45 30/21/46 13/15/47
f 12/14/48 18/13/49 13/15/50
f 19/22/51 25/23/52 26/24/53 21/25/54
f 24/26/55 19/22/56 21/25/57 23/27/58
f 26/24/59 25/23/60 20/28/61 22/29/62
f 14/17/63 6/6/64 8/9/65 16/30/66
f 7/10/67 5/7/68 15/16/69 17/19/70
f 13/15/71 30/21/72 31/31/73 11/18/74
f 16/30/75 32/32/76 29/20/77 14/17/78
f 23/27/79 29/20/80 32/32/81 24/26/82
f 21/25/83 27/11/84 29/20/85 23/27/86
f 20/28/87 31/31/88 30/21/89 22/29/90
f 22/29/91 30/21/92 28/12/93 26/24/94
f 26/24/95 28/12/96 27/11/97 21/25/98
