# This file uses centimeters as units for non-parametric coordinates.

mtllib rock23.mtl
g default
v -0.021358 0.312736 -0.743685
v -0.397612 0.573514 -2.295146
v 0.602657 0.573514 -2.018766
v -0.474617 0.000000 -2.633635
v -1.043214 0.000000 -1.678035
v -0.732719 0.436804 -1.558788
v 0.907189 0.436804 -1.323495
v 1.063868 -0.036914 -1.159947
v -0.760884 0.000000 -1.373925
v -0.618364 0.267441 -1.330682
v -0.040458 0.216213 -0.683735
v 0.115216 0.187514 -0.771119
v 0.164447 0.000000 -0.712487
v 0.966238 0.000000 -1.487839
v 0.861613 0.302914 -1.626044
v 0.711488 0.360079 -2.076315
v 0.236407 0.309648 -2.266387
v 0.212722 0.000000 -2.413603
v -0.490735 0.170231 -0.832187
v -0.140381 0.182795 -0.550513
v -0.596016 0.000000 -0.689144
v -0.249527 0.000000 -0.412354
v 0.172669 0.000000 -0.515599
v 0.072818 0.141503 -0.572158
v 1.004668 0.221692 -1.909998
v 0.914874 0.278857 -2.343285
v 1.159512 0.000000 -1.889628
v 0.984741 0.000000 -2.406580
v 0.491281 0.240763 -2.491802
v 0.456962 0.000000 -2.626504
vt 0.658200 0.147480
vt 0.862560 0.245289
vt 0.777143 0.303520
vt 0.647526 0.261162
vt 0.791181 0.333183
vt 0.709144 0.332722
vt 0.852674 0.288994
vt 0.562607 0.314878
vt 0.547889 0.117199
vt 0.806473 0.099630
vt 0.682186 0.109890
vt 0.810744 0.082785
vt 0.833358 0.106186
vt 0.634552 0.072952
vt 0.810347 0.057064
vt 0.743031 0.056001
vt 0.743264 0.015321
vt 0.813599 0.018554
vt 0.862677 0.095181
vt 0.933572 0.230122
vt 0.864084 0.063739
vt 0.837772 0.072904
vt 0.911885 0.287514
vt 0.797663 0.380940
vt 0.848487 0.341339
vt 0.886728 0.365548
vt 0.811731 0.421719
vt 0.672252 0.378625
vt 0.715600 0.420524
vt 0.734352 0.380441
vn -0.419983 0.906435 0.044602
vn 0.244678 0.912878 0.326783
vn 0.082605 0.996576 -0.003661
vn -0.285513 0.931623 -0.224856
vn -0.285513 0.931623 -0.224856
vn 0.082605 0.996576 -0.003661
vn 0.413113 0.804846 -0.426100
vn 0.171407 0.537364 -0.825748
vn 0.244678 0.912878 0.326783
vn 0.868670 0.483721 -0.106892
vn 0.413113 0.804846 -0.426100
vn 0.082605 0.996576 -0.003661
vn -0.446049 0.560964 -0.697395
vn -0.836344 0.486338 -0.252990
vn -0.419983 0.906435 0.044602
vn -0.285513 0.931623 -0.224856
vn -0.077882 0.920692 0.382441
vn -0.419983 0.906435 0.044602
vn -0.706776 0.491464 0.508853
vn -0.136913 0.832978 0.536099
vn -0.077882 0.920692 0.382441
vn 0.244678 0.912878 0.326783
vn -0.419983 0.906435 0.044602
vn -0.136913 0.832978 0.536099
vn 0.463254 0.411686 0.784800
vn 0.244678 0.912878 0.326783
vn -0.077882 0.920692 0.382441
vn -0.775771 0.409482 0.480108
vn -0.706776 0.491464 0.508853
vn -0.419983 0.906435 0.044602
vn -0.836344 0.486338 -0.252990
vn -0.170881 0.848825 0.500296
vn -0.514691 0.798554 0.312097
vn -0.650631 0.637226 0.413065
vn -0.298848 0.691544 0.657615
vn 0.463254 0.411686 0.784800
vn 0.486821 0.421531 0.765060
vn 0.626629 0.418735 0.657264
vn 0.244678 0.912878 0.326783
vn -0.298848 0.691544 0.657615
vn 0.535745 0.547850 0.642524
vn 0.443348 0.644064 0.623397
vn -0.170881 0.848825 0.500296
vn 0.244678 0.912878 0.326783
vn 0.626629 0.418735 0.657264
vn 0.941657 0.332805 -0.050229
vn 0.868670 0.483721 -0.106892
vn 0.494228 0.725652 -0.478715
vn 0.741011 0.670851 0.029345
vn 0.879641 0.473491 0.045152
vn 0.663417 0.426756 -0.614620
vn -0.285513 0.931623 -0.224856
vn 0.171407 0.537364 -0.825748
vn 0.072566 0.468423 -0.880519
vn -0.446049 0.560964 -0.697395
vn -0.058678 0.430010 -0.900915
vn -0.025790 0.720654 -0.692815
vn 0.494228 0.725652 -0.478715
vn 0.663417 0.426756 -0.614620
vn -0.136913 0.832978 0.536099
vn -0.706776 0.491464 0.508853
vn -0.514691 0.798554 0.312097
vn -0.170881 0.848825 0.500296
vn -0.706776 0.491464 0.508853
vn -0.775771 0.409482 0.480108
vn -0.650631 0.637226 0.413065
vn -0.514691 0.798554 0.312097
vn 0.486821 0.421531 0.765060
vn 0.463254 0.411686 0.784800
vn 0.443348 0.644064 0.623397
vn 0.535745 0.547850 0.642524
vn 0.463254 0.411686 0.784800
vn -0.136913 0.832978 0.536099
vn -0.170881 0.848825 0.500296
vn 0.443348 0.644064 0.623397
vn 0.413113 0.804846 -0.426100
vn 0.868670 0.483721 -0.106892
vn 0.741011 0.670851 0.029345
vn 0.494228 0.725652 -0.478715
vn 0.868670 0.483721 -0.106892
vn 0.941657 0.332805 -0.050229
vn 0.879641 0.473491 0.045152
vn 0.741011 0.670851 0.029345
vn 0.072566 0.468423 -0.880519
vn 0.171407 0.537364 -0.825748
vn -0.025790 0.720654 -0.692815
vn -0.058678 0.430010 -0.900915
vn 0.171407 0.537364 -0.825748
vn 0.413113 0.804846 -0.426100
vn 0.494228 0.725652 -0.478715
vn -0.025790 0.720654 -0.692815
s off
g polySurface2 pCube6
usemtl rock2lowpoly_rock2lowpolysoft_initialShadingGroup
f 6/1/1 7/2/2 3/3/3 2/4/4
f 2/4/5 3/3/6 16/5/7 17/6/8
f 7/2/9 15/7/10 16/5/11 3/3/12
f 4/8/13 5/9/14 6/1/15 2/4/16
f 1/10/17 6/1/18 10/11/19 11/12/20
f 1/10/21 7/2/22 6/1/23
f 11/12/24 12/13/25 7/2/26 1/10/27
f 9/14/28 10/11/29 6/1/30 5/9/31
f 20/15/32 19/16/33 21/17/34 22/18/35
f 12/13/36 13/19/37 8/20/38 7/2/39
f 22/18/40 23/21/41 24/22/42 20/15/43
f 7/2/44 8/20/45 14/23/46 15/7/47
f 26/24/48 25/25/49 27/26/50 28/27/51
f 2/4/52 17/6/53 18/28/54 4/8/55
f 30/29/56 29/30/57 26/24/58 28/27/59
f 11/12/60 10/11/61 19/16/62 20/15/63
f 10/11/64 9/14/65 21/17/66 19/16/67
f 13/19/68 12/13/69 24/22/70 23/21/71
f 12/13/72 11/12/73 20/15/74 24/22/75
f 16/5/76 15/7/77 25/25/78 26/24/79
f 15/7/80 14/23/81 27/26/82 25/25/83
f 18/28/84 17/6/85 29/30/86 30/29/87
f 17/6/88 16/5/89 26/24/90 29/30/91
