# This file uses centimeters as units for non-parametric coordinates.

mtllib rock5.mtl
g default
v 2.822067 -0.004328 1.517019
v 2.276842 0.344862 1.106499
v 1.520349 0.344862 0.643020
v 2.308674 0.344862 0.566487
v 1.126147 -0.004328 0.279596
v 2.679235 -0.004328 0.207612
v 1.675643 -0.004328 1.852610
v 1.047149 -0.004328 0.944903
v 1.464445 0.344862 0.900733
v 1.829343 0.344862 1.354998
v 1.914852 0.344862 0.427502
v 1.966226 -0.004328 0.067242
vt 0.897855 0.728889
vt 0.983648 0.801215
vt 0.786971 0.859889
vt 0.827705 0.741107
vt 0.881974 0.621763
vt 0.816603 0.626419
vt 0.756388 0.563677
vt 0.904636 0.518173
vt 0.675862 0.668015
vt 0.785059 0.677417
vt 0.992720 0.605169
vt 0.908280 0.648287
vn -0.113728 0.900004 0.420783
vn -0.141893 0.846610 0.512950
vn 0.424075 0.861222 0.280102
vn 0.341464 0.919274 0.195800
vn -0.297892 0.910452 -0.286946
vn -0.038842 0.895704 -0.442951
vn -0.024411 0.766389 -0.641913
vn -0.411360 0.805983 -0.425646
vn 0.424075 0.861222 0.280102
vn 0.473322 0.835513 -0.279077
vn 0.377826 0.905149 -0.194814
vn 0.341464 0.919274 0.195800
vn -0.411360 0.805983 -0.425646
vn -0.592785 0.779479 0.202528
vn -0.438828 0.881609 0.173768
vn -0.297892 0.910452 -0.286946
vn -0.438828 0.881609 0.173768
vn -0.113728 0.900004 0.420783
vn -0.038842 0.895704 -0.442951
vn -0.297892 0.910452 -0.286946
vn -0.592785 0.779479 0.202528
vn -0.141893 0.846610 0.512950
vn -0.113728 0.900004 0.420783
vn -0.438828 0.881609 0.173768
vn -0.038842 0.895704 -0.442951
vn -0.113728 0.900004 0.420783
vn 0.341464 0.919274 0.195800
vn 0.377826 0.905149 -0.194814
vn -0.024411 0.766389 -0.641913
vn -0.038842 0.895704 -0.442951
vn 0.377826 0.905149 -0.194814
vn 0.473322 0.835513 -0.279077
s off
g polySurface15 rockssoft_pCylinder2
usemtl rockssoft_initialShadingGroup
f 10/1/1 7/2/2 1/3/3 2/4/4
f 3/5/5 11/6/6 12/7/7 5/8/8
f 1/3/9 6/9/10 4/10/11 2/4/12
f 5/8/13 8/11/14 9/12/15 3/5/16
f 9/12/17 10/1/18 11/6/19 3/5/20
f 8/11/21 7/2/22 10/1/23 9/12/24
f 11/6/25 10/1/26 2/4/27 4/10/28
f 12/7/29 11/6/30 4/10/31 6/9/32
