# This file uses centimeters as units for non-parametric coordinates.

mtllib stag1.mtl
g default
v 0.363462 -1.832986 -0.328805
v 0.003852 -1.855640 -0.524703
v -0.565779 -1.709983 -0.440194
v -0.616867 -1.975653 -0.003771
v -0.378410 -1.996762 0.393149
v -0.012972 -1.890027 0.494876
v 0.333070 -1.812651 0.335128
v 0.514531 -1.827638 -0.001127
v 0.637864 -1.242857 -0.575766
v -0.014911 -1.475676 -1.091387
v -0.693739 -1.252821 -0.737316
v -1.096593 -1.497849 -0.011623
v -0.713186 -1.329677 0.764233
v -0.020357 -1.429586 0.920004
v 0.663900 -1.259942 0.670672
v 0.888245 -1.085109 0.058377
v 0.460509 -0.243339 -0.458598
v -0.006298 -0.463495 -0.845755
v -0.442410 -0.333347 -0.396844
v -0.930319 -0.570719 -0.022761
v -0.580630 -0.439945 0.617407
v -0.054013 -0.479748 0.612630
v 0.405423 -0.392671 0.428874
v 0.677172 -0.279690 0.023104
v 0.356052 0.597049 -0.351056
v 0.033512 0.506096 -0.513875
v -0.264096 0.478926 -0.276487
v -0.474969 0.413407 0.001908
v -0.358541 0.426053 0.322107
v -0.041055 0.375703 0.386293
v 0.272572 0.495691 0.245720
v 0.423291 0.573930 -0.033147
v 0.233354 1.446054 -0.207399
v 0.055882 1.399058 -0.261069
v -0.121750 1.363220 -0.154715
v -0.217089 1.336931 0.001881
v -0.165759 1.330917 0.150590
v -0.000579 1.342956 0.190494
v 0.178405 1.402090 0.116527
v 0.269160 1.443737 -0.039919
v 0.130951 2.248743 -0.105774
v 0.035475 2.287672 -0.114421
v -0.046881 2.300795 -0.066766
v -0.089909 2.283411 0.005083
v -0.072924 2.257085 0.076006
v 0.001890 2.241890 0.106395
v 0.104610 2.251711 0.070815
v 0.169061 2.262877 -0.017979
v -0.002597 -2.236670 -0.001304
v -0.000151 3.323186 0.000052
vt 0.151574 0.743743
vt 0.127975 0.799524
vt 0.145968 0.896623
vt 0.225279 0.882880
vt 0.282297 0.841616
vt 0.308034 0.787245
vt 0.290495 0.729754
vt 0.242079 0.706255
vt 0.086638 0.629866
vt 0.001599 0.800002
vt 0.059321 0.955853
vt 0.235245 0.998008
vt 0.393929 0.927110
vt 0.418362 0.781898
vt 0.371143 0.625935
vt 0.239449 0.554629
vt 0.001599 0.511748
vt 0.001599 0.340645
vt 0.113482 0.243216
vt 0.191936 0.110936
vt 0.336465 0.056771
vt 0.447493 0.001992
vt 0.576025 0.008507
vt 0.682697 0.051427
vt 0.801084 0.057692
vt 0.191955 0.540391
vt 0.177264 0.424022
vt 0.262768 0.348759
vt 0.288751 0.239345
vt 0.404007 0.196778
vt 0.489352 0.169834
vt 0.577084 0.171473
vt 0.662050 0.192196
vt 0.746808 0.221983
vt 0.339819 0.568686
vt 0.344182 0.503000
vt 0.381713 0.443767
vt 0.414203 0.384712
vt 0.469461 0.350790
vt 0.525504 0.324997
vt 0.591795 0.335683
vt 0.649220 0.346990
vt 0.703589 0.357599
vt 0.478212 0.614582
vt 0.487770 0.583794
vt 0.507350 0.552033
vt 0.528563 0.525507
vt 0.552532 0.508444
vt 0.582595 0.498830
vt 0.619064 0.498960
vt 0.651152 0.499837
vt 0.679392 0.498006
vt 0.588038 0.688769
vt 0.603520 0.681912
vt 0.616723 0.673136
vt 0.625802 0.662219
vt 0.633494 0.651837
vt 0.644275 0.643479
vt 0.661373 0.637996
vt 0.678904 0.633876
vt 0.693719 0.628608
vt 0.225076 0.796648
vt 0.723072 0.803414
vn 0.676273 -0.593367 -0.436544
vn 0.087796 -0.758615 -0.645597
vn 0.032679 -0.079329 -0.996313
vn 0.778697 -0.074009 -0.623020
vn -0.507337 -0.661387 -0.552427
vn -0.673767 -0.023156 -0.738581
vn -0.677778 -0.734911 0.022879
vn -0.996650 -0.081773 -0.001278
vn -0.432261 -0.688318 0.582554
vn -0.634044 -0.089350 0.768118
vn 0.139412 -0.674527 0.724967
vn 0.107637 -0.081313 0.990860
vn 0.621975 -0.626046 0.470333
vn 0.670559 -0.042080 0.740662
vn 0.835107 -0.549989 -0.010415
vn 0.998584 -0.031237 0.043050
vn 0.018617 0.296705 -0.954788
vn 0.731221 0.214965 -0.647384
vn -0.672020 0.293646 -0.679824
vn -0.953104 0.296646 -0.059943
vn -0.599702 0.291549 0.745222
vn 0.108666 0.282806 0.953002
vn 0.553900 0.307041 0.773900
vn 0.959509 0.275973 0.056397
vn -0.116111 0.282624 -0.952177
vn 0.730999 0.228579 -0.642955
vn -0.689503 0.259785 -0.676090
vn -0.927503 0.357759 -0.108381
vn -0.615046 0.356942 0.703073
vn 0.122015 0.247465 0.961183
vn 0.595222 0.227532 0.770675
vn 0.964827 0.226672 0.133150
vn -0.165831 0.222226 -0.960789
vn 0.711475 0.211978 -0.669976
vn -0.704127 0.190988 -0.683907
vn -0.964653 0.224320 -0.138289
vn -0.635213 0.228389 0.737796
vn 0.092671 0.166222 0.981724
vn 0.622885 0.146856 0.768406
vn 0.972365 0.160752 0.169305
vn -0.214719 0.135838 -0.967184
vn 0.629728 0.167657 -0.758508
vn -0.696899 0.112440 -0.708300
vn -0.979854 0.118984 -0.160403
vn -0.697011 0.118429 0.707213
vn 0.050524 0.095582 0.994138
vn 0.598683 0.098408 0.794918
vn 0.975613 0.134349 0.173581
vn 0.072823 -0.988845 -0.129935
vn 0.517243 0.812471 0.268982
s 1
g pCone1
usemtl initialShadingGroup
f 1/1/1 2/2/2 10/10/3 9/9/4
f 2/2/2 3/3/5 11/11/6 10/10/3
f 3/3/5 4/4/7 12/12/8 11/11/6
f 4/4/7 5/5/9 13/13/10 12/12/8
f 5/5/9 6/6/11 14/14/12 13/13/10
f 6/6/11 7/7/13 15/15/14 14/14/12
f 7/7/13 8/8/15 16/16/16 15/15/14
f 8/8/15 1/1/1 9/9/4 16/16/16
f 9/17/4 10/18/3 18/27/17 17/26/18
f 10/18/3 11/19/6 19/28/19 18/27/17
f 11/19/6 12/20/8 20/29/20 19/28/19
f 12/20/8 13/21/10 21/30/21 20/29/20
f 13/21/10 14/22/12 22/31/22 21/30/21
f 14/22/12 15/23/14 23/32/23 22/31/22
f 15/23/14 16/24/16 24/33/24 23/32/23
f 16/24/16 9/25/4 17/34/18 24/33/24
f 17/26/18 18/27/17 26/36/25 25/35/26
f 18/27/17 19/28/19 27/37/27 26/36/25
f 19/28/19 20/29/20 28/38/28 27/37/27
f 20/29/20 21/30/21 29/39/29 28/38/28
f 21/30/21 22/31/22 30/40/30 29/39/29
f 22/31/22 23/32/23 31/41/31 30/40/30
f 23/32/23 24/33/24 32/42/32 31/41/31
f 24/33/24 17/34/18 25/43/26 32/42/32
f 25/35/26 26/36/25 34/45/33 33/44/34
f 26/36/25 27/37/27 35/46/35 34/45/33
f 27/37/27 28/38/28 36/47/36 35/46/35
f 28/38/28 29/39/29 37/48/37 36/47/36
f 29/39/29 30/40/30 38/49/38 37/48/37
f 30/40/30 31/41/31 39/50/39 38/49/38
f 31/41/31 32/42/32 40/51/40 39/50/39
f 32/42/32 25/43/26 33/52/34 40/51/40
f 33/44/34 34/45/33 42/54/41 41/53/42
f 34/45/33 35/46/35 43/55/43 42/54/41
f 35/46/35 36/47/36 44/56/44 43/55/43
f 36/47/36 37/48/37 45/57/45 44/56/44
f 37/48/37 38/49/38 46/58/46 45/57/45
f 38/49/38 39/50/39 47/59/47 46/58/46
f 39/50/39 40/51/40 48/60/48 47/59/47
f 40/51/40 33/52/34 41/61/42 48/60/48
f 2/2/2 1/1/1 49/62/49
f 3/3/5 2/2/2 49/62/49
f 4/4/7 3/3/5 49/62/49
f 5/5/9 4/4/7 49/62/49
f 6/6/11 5/5/9 49/62/49
f 7/7/13 6/6/11 49/62/49
f 8/8/15 7/7/13 49/62/49
f 1/1/1 8/8/15 49/62/49
f 41/53/42 42/54/41 50/63/50
f 42/54/41 43/55/43 50/63/50
f 43/55/43 44/56/44 50/63/50
f 44/56/44 45/57/45 50/63/50
f 45/57/45 46/58/46 50/63/50
f 46/58/46 47/59/47 50/63/50
f 47/59/47 48/60/48 50/63/50
f 48/60/48 41/61/42 50/63/50
